<svg width="150" height="151" viewBox="0 0 150 151" fill="none" xmlns="http://www.w3.org/2000/svg">
<rect x="5" width="140" height="140" rx="70" fill="url(#paint0_radial_143_10080)"/>
<g filter="url(#filter0_d_143_10080)">
<g clip-path="url(#clip0_143_10080)">
<path opacity="0.9" d="M75 111C92.6731 111 107 98.464 107 83C107 67.536 92.6731 55 75 55C57.3269 55 43 67.536 43 83C43 98.464 57.3269 111 75 111Z" fill="#2C7980"/>
<path d="M75 109C93.7777 109 109 94.6731 109 77C109 59.3269 93.7777 45 75 45C56.2223 45 41 59.3269 41 77C41 94.6731 56.2223 109 75 109Z" fill="#3797A0"/>
<path opacity="0.4" d="M75 97C84.9411 97 93 89.8366 93 81C93 72.1634 84.9411 65 75 65C65.0589 65 57 72.1634 57 81C57 89.8366 65.0589 97 75 97Z" fill="#49C9D5"/>
<path d="M75 79C90.464 79 103 67.3594 103 53C103 38.6406 90.464 27 75 27C59.536 27 47 38.6406 47 53C47 67.3594 59.536 79 75 79Z" fill="#3797A0"/>
<path d="M56.5883 42.6591C60.3225 41.6585 62.191 36.5228 60.7615 31.1881C59.3321 25.8535 55.1461 22.34 51.4119 23.3406C47.6776 24.3412 45.8092 29.4769 47.2386 34.8116C48.668 40.1463 52.854 43.6597 56.5883 42.6591Z" fill="#2C7980"/>
<path d="M93.4118 42.6591C97.146 43.6597 101.332 40.1462 102.761 34.8115C104.191 29.4769 102.322 24.3411 98.5881 23.3405C94.8539 22.3399 90.6679 25.8534 89.2385 31.1881C87.8091 36.5227 89.6775 41.6585 93.4118 42.6591Z" fill="#2C7980"/>
<path opacity="0.5" d="M55.553 36.7956C57.6869 36.2238 58.7215 33.1655 57.8638 29.9647C57.0062 26.764 54.5811 24.6327 52.4472 25.2045C50.3133 25.7762 49.2788 28.8345 50.1364 32.0353C50.9941 35.2361 53.4192 37.3673 55.553 36.7956Z" fill="#49C9D5"/>
<path opacity="0.5" d="M94.4471 36.7953C96.5809 37.3671 99.0061 35.2359 99.8637 32.0351C100.721 28.8343 99.6868 25.776 97.5529 25.2042C95.419 24.6325 92.9939 26.7637 92.1363 29.9645C91.2786 33.1653 92.3132 36.2236 94.4471 36.7953Z" fill="#49C9D5"/>
<path d="M64 60C68.4183 60 72 55.9706 72 51C72 46.0294 68.4183 42 64 42C59.5817 42 56 46.0294 56 51C56 55.9706 59.5817 60 64 60Z" fill="#FAFBF6"/>
<path d="M86 60C90.4183 60 94 55.9706 94 51C94 46.0294 90.4183 42 86 42C81.5817 42 78 46.0294 78 51C78 55.9706 81.5817 60 86 60Z" fill="#FAFBF6"/>
<path d="M66 57C68.7614 57 71 54.7614 71 52C71 49.2386 68.7614 47 66 47C63.2386 47 61 49.2386 61 52C61 54.7614 63.2386 57 66 57Z" fill="#1C1B17"/>
<path d="M88 57C90.7614 57 93 54.7614 93 52C93 49.2386 90.7614 47 88 47C85.2386 47 83 49.2386 83 52C83 54.7614 85.2386 57 88 57Z" fill="#1C1B17"/>
<path d="M68 52C69.1046 52 70 51.1046 70 50C70 48.8954 69.1046 48 68 48C66.8954 48 66 48.8954 66 50C66 51.1046 66.8954 52 68 52Z" fill="#FAFBF6"/>
<path d="M90 52C91.1046 52 92 51.1046 92 50C92 48.8954 91.1046 48 90 48C88.8954 48 88 48.8954 88 50C88 51.1046 88.8954 52 90 52Z" fill="#FAFBF6"/>
<path d="M66 65C72 70.3333 78 70.3333 84 65" stroke="#1C1B17" stroke-width="2.5" stroke-linecap="round"/>
<path opacity="0.3" d="M58 65C61.3137 65 64 63.2091 64 61C64 58.7909 61.3137 57 58 57C54.6863 57 52 58.7909 52 61C52 63.2091 54.6863 65 58 65Z" fill="#49C9D5"/>
<path opacity="0.3" d="M92 65C95.3137 65 98 63.2091 98 61C98 58.7909 95.3137 57 92 57C88.6863 57 86 58.7909 86 61C86 63.2091 88.6863 65 92 65Z" fill="#49C9D5"/>
<path d="M46.5 91.3302C50.3263 89.121 52.3089 85.3915 50.9282 83C49.5475 80.6086 45.3263 80.4608 41.5 82.6699C37.6736 84.8791 35.6911 88.6086 37.0718 91C38.4525 93.3915 42.6736 93.5393 46.5 91.3302Z" fill="#2C7980"/>
<path d="M103.5 91.3302C107.326 93.5393 111.547 93.3915 112.928 91C114.309 88.6086 112.326 84.8791 108.5 82.6699C104.674 80.4608 100.452 80.6086 99.0718 83C97.6911 85.3915 99.6736 89.121 103.5 91.3302Z" fill="#2C7980"/>
<path d="M63 115C68.5228 115 73 112.314 73 109C73 105.686 68.5228 103 63 103C57.4772 103 53 105.686 53 109C53 112.314 57.4772 115 63 115Z" fill="#2C7980"/>
<path d="M87 115C92.5228 115 97 112.314 97 109C97 105.686 92.5228 103 87 103C81.4772 103 77 105.686 77 109C77 112.314 81.4772 115 87 115Z" fill="#2C7980"/>
</g>
</g>
<defs>
<filter id="filter0_d_143_10080" x="0" y="1" width="150" height="150" filterUnits="userSpaceOnUse" color-interpolation-filters="sRGB">
<feFlood flood-opacity="0" result="BackgroundImageFix"/>
<feColorMatrix in="SourceAlpha" type="matrix" values="0 0 0 0 0 0 0 0 0 0 0 0 0 0 0 0 0 0 127 0" result="hardAlpha"/>
<feOffset dy="6"/>
<feGaussianBlur stdDeviation="10"/>
<feComposite in2="hardAlpha" operator="out"/>
<feColorMatrix type="matrix" values="0 0 0 0 0.286275 0 0 0 0 0.788235 0 0 0 0 0.835294 0 0 0 0.5 0"/>
<feBlend mode="normal" in2="BackgroundImageFix" result="effect1_dropShadow_143_10080"/>
<feBlend mode="normal" in="SourceGraphic" in2="effect1_dropShadow_143_10080" result="shape"/>
</filter>
<radialGradient id="paint0_radial_143_10080" cx="0" cy="0" r="1" gradientUnits="userSpaceOnUse" gradientTransform="translate(75 70) scale(98.995)">
<stop stop-color="#49C9D5" stop-opacity="0.18"/>
<stop offset="0.7" stop-color="#49C9D5" stop-opacity="0"/>
</radialGradient>
<clipPath id="clip0_143_10080">
<rect width="110" height="110" fill="white" transform="translate(20 15)"/>
</clipPath>
</defs>
</svg>
